<?xml version="1.0" encoding="utf-8"?>
<!-- Generator: Adobe Illustrator 22.1.0, SVG Export Plug-In . SVG Version: 6.00 Build 0)  -->
<svg version="1.1" id="Layer_1" xmlns="http://www.w3.org/2000/svg" xmlns:xlink="http://www.w3.org/1999/xlink" x="0px" y="0px"
	 viewBox="0 0 2834.6 2834.6" style="enable-background:new 0 0 2834.6 2834.6;" xml:space="preserve">
<style type="text/css">
	.st0{fill:none;}
	.st1{fill:url(#Polkareal);}
	.st2{fill:#FFDF23;}
	.st3{stroke:#000000;stroke-miterlimit:10;}
</style>
<pattern  width="206" height="343" patternUnits="userSpaceOnUse" id="Polkareal" viewBox="69 -412 206 343" style="overflow:visible;">
	<g>
		<rect x="69" y="-412" class="st0" width="206" height="343"/>
		<circle cx="275" cy="-69" r="69"/>
		<circle cx="69" cy="-69" r="69"/>
		<circle cx="172" cy="-240.5" r="69"/>
		<circle cx="275" cy="-412" r="69"/>
		<circle cx="69" cy="-412" r="69"/>
	</g>
</pattern>
<g>
	<path class="st1" d="M1417.3,2531.5c-150.4,0-296.3-29.5-433.7-87.6c-66-27.9-129.7-62.5-189.3-102.7
		c-59-39.9-114.5-85.6-164.9-136.1s-96.2-105.9-136.1-164.9c-40.2-59.6-74.8-123.2-102.7-189.3c-58.1-137.4-87.6-283.3-87.6-433.7
		c0-150.4,29.5-296.3,87.6-433.7c27.9-66,62.5-129.7,102.7-189.3c39.9-59,85.6-114.5,136.1-164.9s105.9-96.2,164.9-136.1
		c59.6-40.2,123.2-74.8,189.3-102.7c137.4-58.1,283.3-87.6,433.7-87.6c150.4,0,296.3,29.5,433.7,87.6
		c66,27.9,129.7,62.5,189.3,102.7c59,39.9,114.5,85.6,164.9,136.1s96.2,105.9,136.1,164.9c40.2,59.6,74.8,123.2,102.7,189.3
		c58.1,137.4,87.6,283.3,87.6,433.7s-29.5,296.3-87.6,433.7c-27.9,66-62.5,129.7-102.7,189.3c-39.9,59-85.6,114.5-136.1,164.9
		s-105.9,96.2-164.9,136.1c-59.6,40.2-123.2,74.8-189.3,102.7C1713.6,2502,1567.7,2531.5,1417.3,2531.5z"/>
	<path d="M1417.3,303.6c75.6,0,151.1,7.6,224.4,22.6c71.5,14.6,141.8,36.5,209,64.9c66,27.9,129.6,62.5,189.2,102.7
		c59,39.8,114.4,85.6,164.8,136c50.4,50.4,96.2,105.9,136,164.8c40.2,59.5,74.8,123.2,102.7,189.2c28.4,67.2,50.3,137.5,64.9,209
		c15,73.4,22.6,148.9,22.6,224.4s-7.6,151.1-22.6,224.4c-14.6,71.5-36.5,141.8-64.9,209c-27.9,66-62.5,129.6-102.7,189.2
		c-39.8,59-85.6,114.4-136,164.8c-50.4,50.4-105.9,96.2-164.8,136c-59.5,40.2-123.2,74.8-189.2,102.7
		c-67.2,28.4-137.5,50.3-209,64.9c-73.4,15-148.9,22.6-224.4,22.6s-151.1-7.6-224.4-22.6c-71.5-14.6-141.8-36.5-209-64.9
		c-66-27.9-129.6-62.5-189.2-102.7c-59-39.8-114.4-85.6-164.8-136c-50.4-50.4-96.2-105.9-136-164.8
		c-40.2-59.5-74.8-123.2-102.7-189.2c-28.4-67.2-50.3-137.5-64.9-209c-15-73.4-22.6-148.9-22.6-224.4s7.6-151.1,22.6-224.4
		c14.6-71.5,36.5-141.8,64.9-209c27.9-66,62.5-129.6,102.7-189.2c39.8-59,85.6-114.4,136-164.8c50.4-50.4,105.9-96.2,164.8-136
		c59.5-40.2,123.2-74.8,189.2-102.7c67.2-28.4,137.5-50.3,209-64.9C1266.2,311.3,1341.8,303.6,1417.3,303.6 M1417.3,302.6
		c-615.6,0-1114.7,499.1-1114.7,1114.7S801.7,2532,1417.3,2532S2532,2032.9,2532,1417.3S2032.9,302.6,1417.3,302.6L1417.3,302.6z"/>
</g>
<g>
	<path class="st2" d="M1417.3,2265.3c-114.5,0-225.5-22.4-330.1-66.6c-101-42.7-191.7-103.9-269.6-181.7
		c-77.9-77.9-139-168.6-181.7-269.6c-44.2-104.5-66.6-215.6-66.6-330.1s22.4-225.5,66.6-330.1c42.7-101,103.9-191.7,181.7-269.6
		c77.9-77.9,168.6-139,269.6-181.7c104.5-44.2,215.6-66.6,330.1-66.6s225.5,22.4,330.1,66.6c101,42.7,191.7,103.9,269.6,181.7
		c77.9,77.9,139,168.6,181.7,269.6c44.2,104.5,66.6,215.6,66.6,330.1s-22.4,225.5-66.6,330.1c-42.7,101-103.9,191.7-181.7,269.6
		c-77.9,77.9-168.6,139-269.6,181.7C1642.9,2242.9,1531.8,2265.3,1417.3,2265.3z"/>
	<path d="M1417.3,599.3c55.5,0,111,5.6,164.9,16.6c52.5,10.7,104.1,26.8,153.5,47.6c48.5,20.5,95.2,45.9,138.9,75.4
		c43.3,29.3,84.1,62.9,121.1,99.9c37,37,70.7,77.8,99.9,121.1c29.5,43.7,54.9,90.5,75.4,138.9c20.9,49.3,36.9,101,47.6,153.5
		c11,53.9,16.6,109.4,16.6,164.9s-5.6,111-16.6,164.9c-10.7,52.5-26.8,104.1-47.6,153.5c-20.5,48.5-45.9,95.2-75.4,138.9
		c-29.3,43.3-62.9,84.1-99.9,121.1c-37,37-77.8,70.7-121.1,99.9c-43.7,29.5-90.5,54.9-138.9,75.4c-49.3,20.9-101,36.9-153.5,47.6
		c-53.9,11-109.4,16.6-164.9,16.6s-111-5.6-164.9-16.6c-52.5-10.7-104.1-26.8-153.5-47.6c-48.5-20.5-95.2-45.9-138.9-75.4
		c-43.3-29.3-84.1-62.9-121.1-99.9c-37-37-70.7-77.8-99.9-121.1c-29.5-43.7-54.9-90.5-75.4-138.9c-20.9-49.3-36.9-101-47.6-153.5
		c-11-53.9-16.6-109.4-16.6-164.9s5.6-111,16.6-164.9c10.7-52.5,26.8-104.1,47.6-153.5c20.5-48.5,45.9-95.2,75.4-138.9
		c29.3-43.3,62.9-84.1,99.9-121.1S916.7,768.3,960,739c43.7-29.5,90.5-54.9,138.9-75.4c49.3-20.9,101-36.9,153.5-47.6
		C1306.3,604.9,1361.8,599.3,1417.3,599.3 M1417.3,539.3c-484.9,0-878,393.1-878,878s393.1,878,878,878s878-393.1,878-878
		S1902.2,539.3,1417.3,539.3L1417.3,539.3z"/>
</g>
<g>
	<g>
		<path d="M2306.1,2294.8c-10.1,0-19.6-3.9-26.7-11.1l-839.3-839.3c-14.7-14.7-14.7-38.7,0-53.4c7.1-7.1,16.6-11.1,26.7-11.1
			s19.6,3.9,26.7,11.1l839.3,839.3c14.7,14.7,14.7,38.7,0,53.4C2325.7,2290.9,2316.2,2294.8,2306.1,2294.8z"/>
		<path d="M1466.9,1380.6c10,0,19.3,3.9,26.3,10.9l839.3,839.3c7,7,10.9,16.4,10.9,26.3c0,10-3.9,19.3-10.9,26.3
			c-7,7-16.4,10.9-26.3,10.9c-10,0-19.3-3.9-26.3-10.9l-839.3-839.3c-14.5-14.5-14.5-38.2,0-52.7
			C1447.5,1384.4,1456.9,1380.6,1466.9,1380.6 M1466.9,1379.6c-9.8,0-19.6,3.7-27,11.2c-14.9,14.9-14.9,39.2,0,54.1l839.3,839.3
			c7.5,7.5,17.3,11.2,27,11.2c9.8,0,19.6-3.7,27-11.2h0c14.9-14.9,14.9-39.2,0-54.1l-839.3-839.3
			C1486.4,1383.3,1476.6,1379.6,1466.9,1379.6L1466.9,1379.6z"/>
	</g>
	<path class="st3" d="M1444.9,1385.6l-14.3,14.3c-39.8,39.8,12.3,156.3,116.3,260.4l0,0c104,104,220.6,156.1,260.4,116.3l14.9-14.9"
		/>
</g>
<g>
	<g>
		<path d="M304.3,2113c-9.2,0-18.1-3.4-25-9.5c-7.6-6.7-12.1-15.9-12.7-26c-0.6-10.1,2.7-19.8,9.4-27.3L929,1312
			c7.2-8.1,17.5-12.7,28.3-12.7c9.2,0,18.1,3.4,25,9.5c7.6,6.7,12.1,15.9,12.7,26s-2.7,19.8-9.4,27.3l-653,738.3
			C325.4,2108.3,315.1,2113,304.3,2113z"/>
		<path d="M957.3,1298.7v1c9.1,0,17.8,3.3,24.7,9.3c15.4,13.6,16.8,37.2,3.2,52.6l-653,738.3c-7.1,8-17.2,12.6-27.9,12.6
			c-9.1,0-17.9-3.3-24.7-9.3c-7.5-6.6-11.9-15.7-12.5-25.6c-0.6-9.9,2.7-19.5,9.3-27l653-738.3c7.1-8,17.2-12.6,27.9-12.6V1298.7
			 M957.3,1298.7c-10.6,0-21.1,4.4-28.7,12.9l-653,738.3c-14,15.8-12.5,40,3.3,54v0c7.3,6.4,16.3,9.6,25.3,9.6
			c10.6,0,21.1-4.4,28.7-12.9l653-738.3c14-15.8,12.5-40-3.3-54C975.4,1301.9,966.3,1298.7,957.3,1298.7L957.3,1298.7z"/>
	</g>
	<path class="st3" d="M1100.3,1335.2l-13.9,15.7c-38.8,43.9-105.8,48-149.6,9.2l0,0c-43.9-38.8-48-105.8-9.2-149.6l14.6-16.5"/>
	<g>
		<path d="M1083.2,1348c-2.8,0-5.5-1-7.6-2.9l-9-8c-2.3-2-3.7-4.8-3.8-7.9c-0.2-3.1,0.8-6,2.8-8.3l177.1-200.2
			c2.2-2.5,5.3-3.9,8.6-3.9c2.8,0,5.5,1,7.6,2.9l9,8c2.3,2,3.7,4.8,3.8,7.9c0.2,3.1-0.8,6-2.8,8.3l-177.1,200.2
			C1089.6,1346.6,1086.5,1348,1083.2,1348z"/>
		<path d="M1251.3,1117.3c2.7,0,5.3,1,7.3,2.7l9,8c4.5,4,5,11,1,15.5l-177.1,200.2c-2.1,2.4-5.1,3.7-8.3,3.7c-2.7,0-5.3-1-7.3-2.7
			l-9-8c-2.2-1.9-3.5-4.6-3.7-7.6c-0.2-2.9,0.8-5.8,2.7-8l177.1-200.2C1245.1,1118.7,1248.1,1117.3,1251.3,1117.3 M1251.3,1116.3
			c-3.3,0-6.6,1.4-9,4l-177.1,200.2c-4.4,4.9-3.9,12.6,1,16.9l9,8c2.3,2,5.1,3,7.9,3c3.3,0,6.6-1.4,9-4l177.1-200.2
			c4.4-4.9,3.9-12.6-1-16.9l-9-8C1257,1117.3,1254.1,1116.3,1251.3,1116.3L1251.3,1116.3z"/>
	</g>
	<g>
		<path d="M1039.2,1309.1c-2.8,0-5.5-1-7.6-2.9l-9-8c-2.3-2-3.7-4.8-3.8-7.9c-0.2-3.1,0.8-6,2.8-8.3l177.1-200.2
			c2.2-2.5,5.3-3.9,8.6-3.9c2.8,0,5.5,1,7.6,2.9l9,8c4.7,4.2,5.2,11.5,1,16.2l-177.1,200.2
			C1045.7,1307.7,1042.5,1309.1,1039.2,1309.1z"/>
		<path d="M1207.4,1078.5L1207.4,1078.5c2.7,0,5.3,1,7.3,2.7l9,8c2.2,1.9,3.5,4.6,3.7,7.6c0.2,2.9-0.8,5.8-2.7,8l-177.1,200.2
			c-2.1,2.4-5.1,3.7-8.3,3.7c-2.7,0-5.3-1-7.3-2.7l-9-8c-2.2-1.9-3.5-4.6-3.7-7.6c-0.2-2.9,0.8-5.8,2.7-8l177.1-200.2
			C1201.2,1079.8,1204.2,1078.5,1207.4,1078.5 M1207.4,1077.5c-3.3,0-6.6,1.4-9,4l-177.1,200.2c-4.4,4.9-3.9,12.6,1,16.9l9,8
			c2.3,2,5.1,3,7.9,3c3.3,0,6.6-1.4,9-4l177.1-200.2c4.4-4.9,3.9-12.6-1-16.9l-9-8C1213,1078.5,1210.2,1077.5,1207.4,1077.5
			L1207.4,1077.5z"/>
	</g>
	<g>
		<path d="M995.3,1270.3c-2.8,0-5.5-1-7.6-2.9l-9-8c-2.3-2-3.7-4.8-3.8-7.9c-0.2-3.1,0.8-6,2.8-8.3l177.1-200.2
			c2.2-2.5,5.3-3.9,8.6-3.9c2.8,0,5.5,1,7.6,2.9l9,8c2.3,2,3.7,4.8,3.8,7.9s-0.8,6-2.8,8.3l-177.1,200.2
			C1001.7,1268.9,998.6,1270.3,995.3,1270.3z"/>
		<path d="M1163.4,1038.6v1c2.7,0,5.3,1,7.3,2.7l9,7.9c4.5,4,5,11,1,15.5l-177.1,200.2c-2.1,2.4-5.1,3.7-8.3,3.7
			c-2.7,0-5.3-1-7.3-2.7l-9-8c-2.2-1.9-3.5-4.6-3.7-7.6c-0.2-2.9,0.8-5.8,2.7-8l177.1-200.2c2.1-2.4,5.1-3.7,8.3-3.7L1163.4,1038.6
			 M1163.4,1038.6c-3.3,0-6.6,1.4-9,4l-177.1,200.2c-4.4,4.9-3.9,12.6,1,16.9l9,8c2.3,2,5.1,3,7.9,3c3.3,0,6.6-1.4,9-4l177.1-200.2
			c4.4-4.9,3.9-12.6-1-16.9l-9-8C1169.1,1039.6,1166.2,1038.6,1163.4,1038.6L1163.4,1038.6z"/>
	</g>
	<g>
		<path d="M951.3,1231.4c-2.8,0-5.5-1-7.6-2.9l-9-7.9c-2.3-2-3.7-4.8-3.8-7.9c-0.2-3.1,0.8-6,2.8-8.3l177.1-200.2
			c2.2-2.5,5.3-3.9,8.6-3.9c2.8,0,5.5,1,7.6,2.9l9,7.9c2.3,2,3.7,4.8,3.8,7.9c0.2,3.1-0.8,6-2.8,8.3L960,1227.5
			C957.8,1230,954.6,1231.4,951.3,1231.4z"/>
		<path d="M1119.5,999.7v1c2.7,0,5.3,1,7.3,2.7l9,8c4.5,4,5,11,1,15.5l-177.1,200.2c-2.1,2.4-5.1,3.7-8.3,3.7c-2.7,0-5.3-1-7.3-2.7
			l-9-8c-4.5-4-5-11-1-15.5l177.1-200.2c2.1-2.3,5.1-3.7,8.3-3.7L1119.5,999.7 M1119.5,999.7c-3.3,0-6.6,1.4-9,4L933.4,1204
			c-4.4,4.9-3.9,12.6,1,16.9l9,8c2.3,2,5.1,3,7.9,3c3.3,0,6.6-1.4,9-4l177.1-200.2c4.4-4.9,3.9-12.6-1-16.9l-9-8
			C1125.1,1000.7,1122.3,999.7,1119.5,999.7L1119.5,999.7z"/>
	</g>
</g>
</svg>
